first trial
nRows=28
nColumns=38

# SIMM Motion File Header:
name Sujet_01_velo_100.mvnx
datacolumns 38
datarows 28
otherdata 1
range 12.4330 12.8830
endheader
time pelvis_tilt  pelvis_list  pelvis_rotation  pelvis_tx  pelvis_ty  pelvis_tz  hip_flexion_r  hip_adduction_r  hip_rotation_r  knee_angle_r  ankle_angle_r  subtalar_angle_r  mtp_angle_r  hip_flexion_l  hip_adduction_l  hip_rotation_l  knee_angle_l  ankle_angle_l  subtalar_angle_l  mtp_angle_l  lumbar_extension  lumbar_bending  lumbar_rotation  arm_flex_r  arm_add_r  arm_rot_r  elbow_flex_r  pro_sup_r  wrist_flex_r  wrist_dev_r  arm_flex_l  arm_add_l  arm_rot_l  elbow_flex_l  pro_sup_l  wrist_flex_l  wrist_dev_l
12.4330	-10.2034	5.0664	-4.3720	0.0000	1.2500	-0.0000	43.1650	-14.2219	-16.8447	37.0593	-23.1822	3.2114	-0.0000	90.0055	-12.7774	-5.1042	101.4577	-7.3494	20.1352	0.0000	-19.4460	-0.3182	-2.6952	87.3835	-22.5693	42.8105	11.3199	101.4887	-20.4945	2.0333	85.3350	-17.6443	51.6038	14.5708	111.4667	-20.0092	8.7110	
12.4500	-10.6323	5.3388	-4.0318	0.0000	1.2500	-0.0000	42.4686	-14.2440	-15.9500	38.8380	-22.3685	2.0661	-0.0000	92.0777	-12.3646	-4.0687	99.1856	-7.2892	19.3942	0.0000	-19.2986	-0.3572	-2.8919	87.5854	-22.4589	42.6542	11.2064	101.3426	-20.4049	1.9325	85.4326	-17.4886	51.3691	14.7328	111.8647	-19.9673	8.7716	
12.4660	-11.1959	5.4635	-4.0086	0.0000	1.2500	-0.0000	43.2256	-14.2353	-14.4369	42.7117	-20.4267	0.4696	0.0000	92.6711	-12.0479	-3.3890	95.9893	-6.8664	18.8844	-0.0000	-19.1288	-0.3918	-3.0187	88.0859	-22.6913	43.0526	11.3214	100.9341	-20.2666	1.9103	86.4592	-17.7074	51.7420	14.7167	111.7603	-19.9684	8.7516	
12.4830	-11.8637	5.4558	-4.2472	0.0000	1.2500	-0.0000	45.1834	-14.1854	-12.3993	48.2589	-17.6903	-1.3707	0.0000	92.0572	-11.8617	-2.9852	91.7053	-6.5044	18.5976	0.0000	-18.9435	-0.4128	-3.0445	88.8489	-23.0515	43.7309	11.5452	100.4424	-20.0696	1.9460	87.9917	-18.1275	52.4944	14.5589	111.3066	-20.0020	8.6743	
12.5000	-12.4179	5.2373	-4.7020	0.0000	1.2500	-0.0000	47.7314	-14.0379	-10.4475	54.4514	-14.9294	-2.6060	-0.0000	90.3202	-11.9457	-3.2112	86.4278	-7.1779	19.0384	-0.0000	-18.8089	-0.3968	-2.8893	89.5233	-23.1942	44.2661	11.7673	100.1851	-19.9450	1.9526	89.1218	-18.5064	53.1889	14.3953	110.7783	-20.0730	8.5817	
12.5160	-12.8032	4.7050	-5.3606	0.0000	1.2500	-0.0000	50.8022	-13.7315	-8.7667	61.2009	-12.4281	-2.7127	0.0000	87.3055	-12.2958	-4.3934	79.7018	-9.7269	20.8722	0.0000	-18.7457	-0.3163	-2.4855	89.9282	-23.0010	44.5033	11.9857	100.3009	-20.0418	1.8358	89.4527	-18.7181	53.6649	14.2568	110.2063	-20.2107	8.4997	
12.5330	-13.0639	3.9596	-6.2393	0.0000	1.2500	-0.0000	54.4562	-13.2800	-7.2526	68.6156	-9.8417	-2.1777	0.0000	83.1639	-12.8029	-6.3128	71.9437	-13.2392	23.3488	0.0000	-18.7342	-0.2017	-1.9007	90.2365	-22.5907	44.5943	12.1989	100.6525	-20.2109	1.6919	89.3781	-18.8908	54.0733	14.1103	109.5592	-20.3860	8.4020	
12.5500	-13.1339	3.2350	-7.3297	0.0000	1.2500	-0.0000	58.2715	-12.8064	-6.0565	75.9661	-6.9444	-1.6624	-0.0000	78.4320	-13.4453	-8.5212	64.5950	-16.2458	25.0383	0.0000	-18.7799	-0.1171	-1.2582	90.6152	-21.9756	44.5677	12.2919	101.1405	-20.1339	1.7206	89.1684	-19.1646	54.4302	13.9938	109.0170	-20.5162	8.2524	
12.5660	-12.9182	2.5731	-8.7206	0.0000	1.2500	-0.0000	62.1716	-12.3517	-5.2446	83.4080	-3.3826	-1.3216	-0.0000	73.0424	-14.2714	-11.0955	58.1438	-18.3082	25.2252	-0.0000	-18.9242	-0.0610	-0.5801	91.3025	-21.0578	44.4108	12.1414	101.7262	-19.4921	2.1082	88.9839	-19.6098	54.8114	13.8595	108.6181	-20.5059	8.0150	
12.5830	-12.5059	1.9492	-10.3119	0.0000	1.2500	-0.0000	66.2179	-11.8917	-4.7957	90.7592	0.4887	-1.0091	0.0000	67.0300	-15.0625	-14.1109	52.1545	-19.9994	24.7104	-0.0000	-19.1293	-0.0352	0.1543	92.0473	-19.9334	44.1134	11.8704	102.4473	-18.6076	2.6620	88.6631	-20.1513	55.1443	13.7572	108.3256	-20.4517	7.7255	
12.6000	-12.1223	1.4904	-11.8166	0.0000	1.2500	-0.0000	70.2071	-11.4775	-4.6439	96.7950	3.8404	-0.9261	0.0000	61.0974	-15.5421	-16.9846	46.6846	-21.4903	24.5614	0.0000	-19.2785	-0.1046	0.8859	92.2939	-18.9107	43.7299	11.7315	103.3160	-18.1174	3.0175	87.9902	-20.7143	55.2165	13.8688	108.2041	-20.5583	7.4561	
12.6160	-11.8045	1.2774	-13.2453	0.0000	1.2500	-0.0000	74.1939	-11.1255	-4.9358	101.2981	6.5738	-1.1702	-0.0000	55.0696	-15.6821	-19.6120	41.2972	-22.9914	25.5860	0.0000	-19.3050	-0.3520	1.6431	91.4724	-18.0592	43.2621	11.8942	104.4613	-18.4434	2.9429	86.5467	-21.3532	54.7908	14.4465	108.3877	-20.9726	7.2365	
12.6330	-11.5307	1.2231	-14.5931	0.0000	1.2500	-0.0000	78.1193	-10.8696	-5.4833	104.5009	8.7770	-1.5514	-0.0000	49.1466	-15.5288	-21.9737	36.4193	-24.2902	27.0759	0.0000	-19.2686	-0.6874	2.4009	90.1678	-17.3203	42.7422	12.1892	105.7541	-19.1598	2.6800	84.7385	-22.0091	54.0891	15.2364	108.7389	-21.5485	7.0340	
12.6500	-11.4434	1.1837	-15.5583	0.0000	1.2500	-0.0000	81.6489	-10.7485	-5.6245	105.8731	9.9143	-1.9050	-0.0000	44.5928	-15.2607	-23.4803	33.3631	-24.8086	27.8260	0.0000	-19.2430	-0.9203	3.0175	89.5636	-16.8033	42.2748	12.3629	106.8185	-19.6246	2.5756	83.5979	-22.4487	53.5966	15.6562	108.9143	-22.0496	6.8303	
12.6660	-11.6458	1.0877	-16.0488	0.0000	1.2500	-0.0000	85.0036	-10.7621	-4.8356	105.0230	9.4273	-2.3247	-0.0000	41.7672	-15.1462	-23.7498	32.5461	-24.1188	26.9679	-0.0000	-19.2643	-0.9700	3.4440	90.2687	-16.4922	41.8185	12.2593	107.5715	-19.5023	2.8420	83.7026	-22.5961	53.4940	15.3879	108.7513	-22.3904	6.6061	
12.6830	-12.0355	0.9989	-16.1589	0.0000	1.2500	-0.0000	87.9999	-10.8456	-3.5336	102.3516	7.9031	-2.8421	0.0000	40.2687	-15.2546	-23.1252	33.5161	-22.6534	25.3199	-0.0000	-19.2992	-0.9246	3.7274	91.6797	-16.3865	41.4161	12.0366	108.0946	-19.1307	3.2617	84.4876	-22.5393	53.6123	14.7497	108.4143	-22.6548	6.3831	
12.7000	-12.4423	0.9759	-15.8643	0.0000	1.2500	-0.0000	89.7053	-10.9751	-2.4417	98.5029	6.5210	-3.2505	-0.0000	40.2083	-15.5533	-22.1161	36.2735	-21.0673	24.1898	0.0000	-19.3198	-0.8505	3.8656	93.1533	-16.6198	41.2794	11.9088	108.2599	-18.8720	3.5323	85.2812	-22.2953	53.9223	14.1111	108.0511	-22.8604	6.2076	
12.7160	-12.8708	1.0135	-15.0279	0.0000	1.2500	-0.0000	89.7278	-11.1806	-1.7137	93.4846	6.1607	-3.5640	0.0000	41.9769	-16.0435	-20.7838	41.3061	-19.4943	24.2185	0.0000	-19.3022	-0.7389	3.8651	94.6716	-17.4682	41.5817	12.0557	107.9142	-18.8940	3.5008	85.8088	-21.7671	54.4948	13.5903	107.6609	-23.0159	6.1005	
12.7330	-13.3142	1.1277	-13.7828	0.0000	1.2500	-0.0000	88.4402	-11.4981	-1.2317	87.2679	5.9434	-3.7848	0.0000	45.2335	-16.5771	-19.0585	48.1449	-17.7574	24.7368	-0.0000	-19.2684	-0.5960	3.7200	96.2491	-18.6743	42.1543	12.2944	107.2121	-19.0256	3.3207	86.3361	-21.0461	55.2507	13.0701	107.2437	-23.1121	6.0418	
12.7500	-13.5800	1.3997	-12.5124	0.0000	1.2500	-0.0000	86.0667	-11.9389	-1.3361	80.4534	4.3621	-3.5817	-0.0000	48.9657	-16.9015	-17.2689	55.3788	-16.0593	25.1515	0.0000	-19.2617	-0.5084	3.4081	97.2816	-19.5682	42.6685	12.2918	106.4877	-19.1166	3.1485	87.0050	-20.4253	55.9363	12.5620	106.9489	-23.1410	6.0164	
12.7660	-13.6027	1.8778	-11.3410	0.0000	1.2500	-0.0000	82.4397	-12.4458	-2.3338	72.7750	0.1538	-2.4204	-0.0000	52.9357	-16.9557	-15.5222	62.8348	-14.5336	25.3724	-0.0000	-19.2971	-0.5172	2.8655	97.4096	-19.7705	43.0555	11.7955	105.7769	-19.0721	3.0388	88.0492	-20.0408	56.5886	11.9710	106.7523	-23.0813	6.0183	
12.7830	-13.4376	2.4999	-10.1500	0.0000	1.2500	-0.0000	77.7314	-12.9549	-4.0218	64.5296	-5.4612	-0.7302	-0.0000	57.3446	-16.7655	-13.7928	70.7046	-13.0615	25.5105	-0.0000	-19.3642	-0.5811	2.1555	96.9915	-19.6450	43.3699	11.0569	105.0452	-18.9874	2.9377	89.2368	-19.7481	57.1784	11.3893	106.6787	-22.9542	6.0536	
12.8000	-13.0764	3.1710	-8.9623	0.0000	1.2500	-0.0000	72.6846	-13.4908	-5.9260	57.1565	-10.2758	0.3860	0.0000	61.8036	-16.3464	-12.2042	78.1056	-11.5161	25.3102	0.0000	-19.4687	-0.6636	1.4469	96.4942	-19.6302	43.4583	10.4982	104.5201	-18.9992	2.8357	90.0207	-19.4305	57.3509	11.1112	106.9530	-22.8156	6.1250	
12.8160	-12.4209	3.8958	-7.7503	0.0000	1.2500	-0.0000	67.3130	-14.1501	-8.0504	51.1093	-13.5791	0.1816	0.0000	66.2408	-15.6719	-10.8380	85.0500	-9.6565	24.5980	0.0000	-19.6420	-0.7640	0.7821	96.2679	-19.9730	43.1886	10.2884	104.3746	-19.1252	2.7556	90.1220	-19.0750	56.8836	11.3784	107.7650	-22.6701	6.2458	
12.8330	-11.5658	4.6531	-6.5547	0.0000	1.2500	-0.0000	61.5854	-14.7728	-10.4527	45.9185	-16.0541	-0.5906	-0.0000	70.6970	-14.8068	-9.6868	91.5150	-7.7183	23.5505	-0.0000	-19.8534	-0.8854	0.1194	95.9556	-20.4335	42.6923	10.2572	104.4330	-19.3484	2.6716	89.8263	-18.7101	55.9991	11.9517	108.9220	-22.5127	6.4022	
12.8500	-10.8010	5.3231	-5.4896	0.0000	1.2500	-0.0000	56.1847	-15.1477	-12.6296	41.6293	-17.6312	-0.8127	0.0000	74.9750	-13.9328	-8.6576	96.5393	-6.2897	22.4600	-0.0000	-20.0125	-0.9966	-0.4987	94.9589	-20.7170	42.2028	10.3223	104.3991	-19.7559	2.4994	89.4352	-18.2856	55.0025	12.4048	110.0796	-22.3853	6.5574	
12.8660	-10.1588	5.8797	-4.5725	0.0000	1.2500	-0.0000	51.0100	-15.3051	-14.5348	38.0165	-18.2524	0.4164	-0.0000	79.2657	-13.1664	-7.5983	99.7297	-5.8074	21.4054	-0.0000	-20.0799	-1.1056	-1.0828	92.4137	-20.6048	41.7479	10.5458	104.1317	-20.5169	2.1540	88.8942	-17.7371	53.9285	12.5842	111.1905	-22.3232	6.6922	
12.8830	-9.6153	6.3610	-3.7767	0.0000	1.2500	-0.0000	46.1742	-15.3019	-16.1159	35.3248	-18.0073	2.1696	-0.0000	83.3950	-12.4077	-6.5959	101.4764	-5.7936	20.2974	-0.0000	-20.0936	-1.2069	-1.6225	89.2039	-20.2793	41.3393	10.8673	103.7727	-21.4670	1.7136	88.2676	-17.1257	52.7469	12.6430	112.3056	-22.2922	6.8260	
